<svg xmlns="http://www.w3.org/2000/svg" xmlns:svg="http://www.w3.org/2000/svg" id="svg943" width="210" height="210" version="1.1" viewBox="0 0 210 210"><metadata id="metadata947"/><defs id="defs935"><style id="style933">.cls-1{fill:#fff}</style></defs><rect style="fill:#f7195c;stroke-width:.424854" id="rect951" width="210" height="210" x="0" y="0"/><g id="Layer_2" data-name="Layer 2" transform="matrix(0.21109459,0,0,0.21109459,61.835273,40.600001)"><g id="Layer_1-2" data-name="Layer 1"><path id="path937" d="M 60.272,610.153 V 422.6 C 60.272,378.448 40.648,361.627 0,360.927 v -65.175 c 40.648,-0.7 60.272,-17.52 60.272,-60.972 V 87.6 C 60.272,35.743 101.94,0 151.7,0 h 39.947 v 71.217 h -16.82 c -26.632,0 -38.546,14.017 -38.546,39.948 V 252.3 c 0,46.256 -23.127,64.477 -53.964,75.691 30.837,12.614 53.964,29.435 53.964,77.091 v 205.071 z" class="cls-1"/><path id="path939" d="M 277.585,610.153 V 422.6 c 0,-44.152 -19.623,-60.973 -60.271,-61.673 v -65.175 c 40.648,-0.7 60.271,-17.52 60.271,-60.972 V 87.6 C 277.585,35.739 319.254,0 369.013,0 h 39.948 v 71.217 h -16.82 c -26.632,0 -38.546,14.017 -38.546,39.948 V 252.3 c 0,46.256 -23.127,64.477 -53.964,75.691 30.837,12.614 53.964,29.435 53.964,77.091 v 205.071 z" class="cls-1"/></g></g></svg>