<svg xmlns="http://www.w3.org/2000/svg" xmlns:svg="http://www.w3.org/2000/svg" xmlns:xlink="http://www.w3.org/1999/xlink" id="svg4190" width="200" height="200" version="1.1" viewBox="0 0 200 200"><metadata id="metadata4196"/><defs id="defs4194"><linearGradient id="linearGradient4250-6"><stop id="stop4747" offset="0" style="stop-color:#000;stop-opacity:1"/><stop id="stop4749" offset="1" style="stop-color:#000;stop-opacity:0"/></linearGradient><linearGradient id="linearGradient4194"><stop style="stop-color:#000;stop-opacity:1" id="stop4196" offset="0"/><stop style="stop-color:#000;stop-opacity:0" id="stop4198" offset="1"/></linearGradient><linearGradient id="linearGradient4250"><stop style="stop-color:#000;stop-opacity:1" id="stop4252" offset="0"/><stop style="stop-color:#000;stop-opacity:0" id="stop4254" offset="1"/></linearGradient><linearGradient id="linearGradient4256" x1="-152.5" x2="-44.338" y1="122.625" y2="185.072" gradientTransform="matrix(0.90589119,0,0,0.89303466,428.51603,-20.279685)" gradientUnits="userSpaceOnUse" xlink:href="#linearGradient4250"/><linearGradient id="linearGradient4258" x1="-152.5" x2="-44.338" y1="122.625" y2="185.072" gradientTransform="matrix(0.90589119,0,0,0.89303466,709.0901,11.638834)" gradientUnits="userSpaceOnUse" xlink:href="#linearGradient4250-6"/><linearGradient id="linearGradient4200" x1="110.208" x2="218.37" y1="87.168" y2="149.615" gradientTransform="matrix(0.90589119,0,0,0.89303466,191.94276,9.8752932)" gradientUnits="userSpaceOnUse" xlink:href="#linearGradient4194"/><clipPath id="clipPath4719" clipPathUnits="userSpaceOnUse"><path id="path4721" d="M 266.34722,156.51019 330.11991,220.28287 388,166.54907 308,86.549074 Z" style="fill:none;fill-rule:evenodd;stroke:#000;stroke-width:1px;stroke-linecap:butt;stroke-linejoin:miter;stroke-opacity:1"/></clipPath><linearGradient id="linearGradient4826" x1="272" x2="394.14" y1="150.946" y2="150.946" gradientUnits="userSpaceOnUse" xlink:href="#linearGradient4250"/><clipPath id="clipPath4855" clipPathUnits="userSpaceOnUse"><path id="path4857" d="m 274.97852,50.96875 -7.3395,14.694496 9.39277,9.568428 L 225.50586,82 l 38,38 10.17383,-14.38086 -1.29297,54.33398 75.16992,75.39649 60.28711,-51.76367 z" style="opacity:.2;fill:url(#linearGradient4859);fill-opacity:1;fill-rule:evenodd;stroke:none;stroke-width:1px;stroke-linecap:butt;stroke-linejoin:miter;stroke-opacity:1"/></clipPath><linearGradient id="linearGradient4859" x1="272" x2="407.457" y1="162.675" y2="162.675" gradientUnits="userSpaceOnUse" xlink:href="#linearGradient4250"/></defs><path id="path4861" d="M 96.578608,53.584127 187.42469,145.73805 Z" style="fill:none;fill-rule:evenodd;stroke:#000;stroke-width:.09893204;stroke-linecap:butt;stroke-linejoin:miter;stroke-miterlimit:4;stroke-dasharray:none;stroke-opacity:1"/><ellipse style="opacity:1;fill:#4caf50;fill-opacity:.94117647;stroke:none" id="path4188" cx="100" cy="100" rx="100" ry="100"/><path id="path4188-2" d="M 394.13995,111.53134 A 101.80447,100.35966 0 0 1 292.33548,211.891 101.80447,100.35966 0 0 1 190.53101,111.53134 101.80447,100.35966 0 0 1 292.33548,11.171684 101.80447,100.35966 0 0 1 394.13995,111.53134 Z" clip-path="url(#clipPath4855)" transform="matrix(0.98227518,0,0,0.99641623,-187.15422,-11.131632)" style="opacity:.1;fill:url(#linearGradient4826);fill-opacity:1;stroke:none"/><path style="opacity:1;fill:#cddc39;fill-opacity:.94117647;stroke:#d2d2d6;stroke-width:0;stroke-linejoin:round;stroke-miterlimit:10;stroke-dasharray:none;stroke-opacity:.94117647" id="path4584" d="m 133.63633,113.10202 c 0,26.45475 -12.9789,43.44217 -33.63634,43.44219 -18.576827,1e-5 -33.636343,-19.44973 -33.636343,-43.44219 0,-28.565318 15.059516,-43.442187 33.636343,-43.442185 18.57684,1.2e-5 33.63634,19.44974 33.63634,43.442185 z"/><path id="path4606" d="M 95.908745,70.248887 C 93.456731,59.55346 94.192328,59.429094 94.192328,59.429094 l 0.858204,0.124362 3.678021,10.32233 z" style="fill:#795548;fill-opacity:1;fill-rule:evenodd;stroke:none;stroke-width:1px;stroke-linecap:butt;stroke-linejoin:miter;stroke-opacity:1"/><path id="path4589-7" d="m 61.442212,27.51312 c 0,0 13.168008,1.710097 23.575125,14.493029 10.407137,12.782946 11.822694,22.878678 11.822694,22.878678 0,0 -12.478392,0.101229 -22.821268,-12.602806 C 59.628667,34.606844 61.442212,27.51312 61.442212,27.51312 Z" style="fill:#1b5e20;fill-opacity:1;fill-rule:evenodd;stroke:#000;stroke-width:0;stroke-linecap:butt;stroke-linejoin:miter;stroke-miterlimit:4;stroke-dasharray:none;stroke-opacity:1"/><path id="path4589" d="m 34.363322,70.621984 c 0,0 11.769631,-11.19289 31.630901,-11.19289 19.86129,0 30.282306,6.467004 30.282306,6.467004 0,0 -9.562822,11.939081 -29.301495,11.939081 -27.462518,0 -32.611712,-7.213195 -32.611712,-7.213195 z" style="fill:#8bc34a;fill-opacity:.94117647;fill-rule:evenodd;stroke:#000;stroke-width:0;stroke-linecap:butt;stroke-linejoin:miter;stroke-miterlimit:4;stroke-dasharray:none;stroke-opacity:1"/></svg>